<?xml version="1.0" encoding="utf-8" standalone="no"?>
<!DOCTYPE svg PUBLIC "-//W3C//DTD SVG 1.1//EN"
  "http://www.w3.org/Graphics/SVG/1.1/DTD/svg11.dtd">
<svg xmlns:xlink="http://www.w3.org/1999/xlink" width="576pt" height="288pt" viewBox="0 0 576 288" xmlns="http://www.w3.org/2000/svg" version="1.1">
 <metadata>
  <rdf:RDF xmlns:dc="http://purl.org/dc/elements/1.1/" xmlns:cc="http://creativecommons.org/ns#" xmlns:rdf="http://www.w3.org/1999/02/22-rdf-syntax-ns#">
   <cc:Work>
    <dc:type rdf:resource="http://purl.org/dc/dcmitype/StillImage"/>
    <dc:date>2026-09-08T17:52:47.499318</dc:date>
    <dc:format>image/svg+xml</dc:format>
    <dc:creator>
     <cc:Agent>
      <dc:title>Matplotlib v3.11.0, https://matplotlib.org/</dc:title>
     </cc:Agent>
    </dc:creator>
   </cc:Work>
  </rdf:RDF>
 </metadata>
 <defs>
  <style type="text/css">*{stroke-linejoin: round; stroke-linecap: butt}</style>
 </defs>
 <g id="figure_1">
  <g id="patch_1">
   <path d="M 0 288 
L 576 288 
L 576 0 
L 0 0 
z
" style="fill: #ffffff"/>
  </g>
  <g id="axes_1">
   <g id="patch_2">
    <path d="M 72 256.32 
L 518.4 256.32 
L 518.4 34.56 
L 72 34.56 
z
" style="fill: #ffffff"/>
   </g>
   <g id="PathCollection_1">
    <defs>
     <path id="m9958591c0a" d="M 0 1.118034 
C 0.296506 1.118034 0.580908 1.000231 0.790569 0.790569 
C 1.000231 0.580908 1.118034 0.296506 1.118034 0 
C 1.118034 -0.296506 1.000231 -0.580908 0.790569 -0.790569 
C 0.580908 -1.000231 0.296506 -1.118034 0 -1.118034 
C -0.296506 -1.118034 -0.580908 -1.000231 -0.790569 -0.790569 
C -1.000231 -0.580908 -1.118034 -0.296506 -1.118034 0 
C -1.118034 0.296506 -1.000231 0.580908 -0.790569 0.790569 
C -0.580908 1.000231 -0.296506 1.118034 0 1.118034 
z
" style="stroke: #000000"/>
    </defs>
    <g clip-path="url(#p0e50678aea)">
     <use xlink:href="#m9958591c0a" x="295.2" y="145.44" style="stroke: #000000"/>
    </g>
   </g>
   <g id="PathCollection_2">
    <defs>
     <path id="m5d8a36ba7c" d="M 0 1.732051 
C 0.459345 1.732051 0.899939 1.549551 1.224745 1.224745 
C 1.549551 0.899939 1.732051 0.459345 1.732051 0 
C 1.732051 -0.459345 1.549551 -0.899939 1.224745 -1.224745 
C 0.899939 -1.549551 0.459345 -1.732051 0 -1.732051 
C -0.459345 -1.732051 -0.899939 -1.549551 -1.224745 -1.224745 
C -1.549551 -0.899939 -1.732051 -0.459345 -1.732051 0 
C -1.732051 0.459345 -1.549551 0.899939 -1.224745 1.224745 
C -0.899939 1.549551 -0.459345 1.732051 0 1.732051 
z
" style="stroke: #0000ff"/>
    </defs>
    <g clip-path="url(#p0e50678aea)">
     <use xlink:href="#m5d8a36ba7c" x="-1" y="175.617596" style="fill: #0000ff; stroke: #0000ff"/>
     <use xlink:href="#m5d8a36ba7c" x="29.11341" y="173.032306" style="fill: #0000ff; stroke: #0000ff"/>
     <use xlink:href="#m5d8a36ba7c" x="234.806384" y="151.628862" style="fill: #0000ff; stroke: #0000ff"/>
     <use xlink:href="#m5d8a36ba7c" x="234.645173" y="149.091102" style="fill: #0000ff; stroke: #0000ff"/>
     <use xlink:href="#m5d8a36ba7c" x="233.308207" y="146.884361" style="fill: #0000ff; stroke: #0000ff"/>
     <use xlink:href="#m5d8a36ba7c" x="230.615747" y="146.600519" style="fill: #0000ff; stroke: #0000ff"/>
    </g>
   </g>
   <g id="PathCollection_3">
    <defs>
     <path id="m875ccf9743" d="M 0 1.732051 
C 0.459345 1.732051 0.899939 1.549551 1.224745 1.224745 
C 1.549551 0.899939 1.732051 0.459345 1.732051 0 
C 1.732051 -0.459345 1.549551 -0.899939 1.224745 -1.224745 
C 0.899939 -1.549551 0.459345 -1.732051 0 -1.732051 
C -0.459345 -1.732051 -0.899939 -1.549551 -1.224745 -1.224745 
C -1.549551 -0.899939 -1.732051 -0.459345 -1.732051 0 
C -1.732051 0.459345 -1.549551 0.899939 -1.224745 1.224745 
C -0.899939 1.549551 -0.459345 1.732051 0 1.732051 
z
" style="stroke: #ff0000"/>
    </defs>
    <g clip-path="url(#p0e50678aea)">
     <use xlink:href="#m875ccf9743" x="231.468916" y="150.670273" style="fill: #ff0000; stroke: #ff0000"/>
    </g>
   </g>
   <g id="patch_3">
    <path d="M 295.2 146.5488 
C 295.494057 146.5488 295.77611 146.43197 295.98404 146.22404 
C 296.19197 146.01611 296.3088 145.734057 296.3088 145.44 
C 296.3088 145.145943 296.19197 144.86389 295.98404 144.65596 
C 295.77611 144.44803 295.494057 144.3312 295.2 144.3312 
C 294.905943 144.3312 294.62389 144.44803 294.41596 144.65596 
C 294.20803 144.86389 294.0912 145.145943 294.0912 145.44 
C 294.0912 145.734057 294.20803 146.01611 294.41596 146.22404 
C 294.62389 146.43197 294.905943 146.5488 295.2 146.5488 
L 295.2 146.5488 
z
" clip-path="url(#p0e50678aea)" style="fill: none; stroke-dasharray: 1.5,2.475; stroke-dashoffset: 0; stroke: #000000; stroke-width: 1.5; stroke-linejoin: miter"/>
   </g>
   <g id="patch_4">
    <path d="M 295.2 156.528 
C 298.140572 156.528 300.961102 155.359698 303.0404 153.2804 
C 305.119698 151.201102 306.288 148.380572 306.288 145.44 
C 306.288 142.499428 305.119698 139.678898 303.0404 137.5996 
C 300.961102 135.520302 298.140572 134.352 295.2 134.352 
C 292.259428 134.352 289.438898 135.520302 287.3596 137.5996 
C 285.280302 139.678898 284.112 142.499428 284.112 145.44 
C 284.112 148.380572 285.280302 151.201102 287.3596 153.2804 
C 289.438898 155.359698 292.259428 156.528 295.2 156.528 
L 295.2 156.528 
z
" clip-path="url(#p0e50678aea)" style="fill: none; stroke-dasharray: 3.2,0.8,0.5,0.8; stroke-dashoffset: 0; stroke: #000000; stroke-width: 0.5; stroke-linejoin: miter"/>
   </g>
   <g id="matplotlib.axis_1">
    <g id="xtick_1">
     <g id="line2d_1">
      <path d="M 73.44 256.32 
L 73.44 34.56 
" clip-path="url(#p0e50678aea)" style="fill: none; stroke: #b0b0b0; stroke-width: 0.8; stroke-linecap: square"/>
     </g>
     <g id="line2d_2">
      <defs>
       <path id="m06e57c8387" d="M 0 0 
L 0 -3.5 
" style="stroke: #000000; stroke-width: 0.8"/>
      </defs>
      <g>
       <use xlink:href="#m06e57c8387" x="73.44" y="256.32" style="stroke: #000000; stroke-width: 0.8"/>
      </g>
     </g>
     <g id="text_1">
      <text style="font-size: 10px; font-family: 'Times New Roman', 'SimSun'; text-anchor: middle" x="73.44" y="266.753594" transform="rotate(-0 73.44 266.753594)">−400</text>
     </g>
    </g>
    <g id="xtick_2">
     <g id="line2d_3">
      <path d="M 128.88 256.32 
L 128.88 34.56 
" clip-path="url(#p0e50678aea)" style="fill: none; stroke: #b0b0b0; stroke-width: 0.8; stroke-linecap: square"/>
     </g>
     <g id="line2d_4">
      <g>
       <use xlink:href="#m06e57c8387" x="128.88" y="256.32" style="stroke: #000000; stroke-width: 0.8"/>
      </g>
     </g>
     <g id="text_2">
      <text style="font-size: 10px; font-family: 'Times New Roman', 'SimSun'; text-anchor: middle" x="128.88" y="266.753594" transform="rotate(-0 128.88 266.753594)">−300</text>
     </g>
    </g>
    <g id="xtick_3">
     <g id="line2d_5">
      <path d="M 184.32 256.32 
L 184.32 34.56 
" clip-path="url(#p0e50678aea)" style="fill: none; stroke: #b0b0b0; stroke-width: 0.8; stroke-linecap: square"/>
     </g>
     <g id="line2d_6">
      <g>
       <use xlink:href="#m06e57c8387" x="184.32" y="256.32" style="stroke: #000000; stroke-width: 0.8"/>
      </g>
     </g>
     <g id="text_3">
      <text style="font-size: 10px; font-family: 'Times New Roman', 'SimSun'; text-anchor: middle" x="184.32" y="266.753594" transform="rotate(-0 184.32 266.753594)">−200</text>
     </g>
    </g>
    <g id="xtick_4">
     <g id="line2d_7">
      <path d="M 239.76 256.32 
L 239.76 34.56 
" clip-path="url(#p0e50678aea)" style="fill: none; stroke: #b0b0b0; stroke-width: 0.8; stroke-linecap: square"/>
     </g>
     <g id="line2d_8">
      <g>
       <use xlink:href="#m06e57c8387" x="239.76" y="256.32" style="stroke: #000000; stroke-width: 0.8"/>
      </g>
     </g>
     <g id="text_4">
      <text style="font-size: 10px; font-family: 'Times New Roman', 'SimSun'; text-anchor: middle" x="239.76" y="266.753594" transform="rotate(-0 239.76 266.753594)">−100</text>
     </g>
    </g>
    <g id="xtick_5">
     <g id="line2d_9">
      <path d="M 295.2 256.32 
L 295.2 34.56 
" clip-path="url(#p0e50678aea)" style="fill: none; stroke: #b0b0b0; stroke-width: 0.8; stroke-linecap: square"/>
     </g>
     <g id="line2d_10">
      <g>
       <use xlink:href="#m06e57c8387" x="295.2" y="256.32" style="stroke: #000000; stroke-width: 0.8"/>
      </g>
     </g>
     <g id="text_5">
      <text style="font-size: 10px; font-family: 'Times New Roman', 'SimSun'; text-anchor: middle" x="295.2" y="266.753594" transform="rotate(-0 295.2 266.753594)">0</text>
     </g>
    </g>
    <g id="xtick_6">
     <g id="line2d_11">
      <path d="M 350.64 256.32 
L 350.64 34.56 
" clip-path="url(#p0e50678aea)" style="fill: none; stroke: #b0b0b0; stroke-width: 0.8; stroke-linecap: square"/>
     </g>
     <g id="line2d_12">
      <g>
       <use xlink:href="#m06e57c8387" x="350.64" y="256.32" style="stroke: #000000; stroke-width: 0.8"/>
      </g>
     </g>
     <g id="text_6">
      <text style="font-size: 10px; font-family: 'Times New Roman', 'SimSun'; text-anchor: middle" x="350.64" y="266.753594" transform="rotate(-0 350.64 266.753594)">100</text>
     </g>
    </g>
    <g id="xtick_7">
     <g id="line2d_13">
      <path d="M 406.08 256.32 
L 406.08 34.56 
" clip-path="url(#p0e50678aea)" style="fill: none; stroke: #b0b0b0; stroke-width: 0.8; stroke-linecap: square"/>
     </g>
     <g id="line2d_14">
      <g>
       <use xlink:href="#m06e57c8387" x="406.08" y="256.32" style="stroke: #000000; stroke-width: 0.8"/>
      </g>
     </g>
     <g id="text_7">
      <text style="font-size: 10px; font-family: 'Times New Roman', 'SimSun'; text-anchor: middle" x="406.08" y="266.753594" transform="rotate(-0 406.08 266.753594)">200</text>
     </g>
    </g>
    <g id="xtick_8">
     <g id="line2d_15">
      <path d="M 461.52 256.32 
L 461.52 34.56 
" clip-path="url(#p0e50678aea)" style="fill: none; stroke: #b0b0b0; stroke-width: 0.8; stroke-linecap: square"/>
     </g>
     <g id="line2d_16">
      <g>
       <use xlink:href="#m06e57c8387" x="461.52" y="256.32" style="stroke: #000000; stroke-width: 0.8"/>
      </g>
     </g>
     <g id="text_8">
      <text style="font-size: 10px; font-family: 'Times New Roman', 'SimSun'; text-anchor: middle" x="461.52" y="266.753594" transform="rotate(-0 461.52 266.753594)">300</text>
     </g>
    </g>
    <g id="xtick_9">
     <g id="line2d_17">
      <path d="M 516.96 256.32 
L 516.96 34.56 
" clip-path="url(#p0e50678aea)" style="fill: none; stroke: #b0b0b0; stroke-width: 0.8; stroke-linecap: square"/>
     </g>
     <g id="line2d_18">
      <g>
       <use xlink:href="#m06e57c8387" x="516.96" y="256.32" style="stroke: #000000; stroke-width: 0.8"/>
      </g>
     </g>
     <g id="text_9">
      <text style="font-size: 10px; font-family: 'Times New Roman', 'SimSun'; text-anchor: middle" x="516.96" y="266.753594" transform="rotate(-0 516.96 266.753594)">400</text>
     </g>
    </g>
    <g id="text_10">
     <!-- $r_y$ / km -->
     <g transform="translate(281.3 279.911797)">
      <text>
       <tspan x="0" y="-0.0625" style="font-style: italic; font-size: 10px; font-family: 'Times New Roman'">r</tspan>
       <tspan x="3.891602" y="1.264062" style="font-style: italic; font-size: 7px; font-family: 'Times New Roman'">y</tspan>
       <tspan x="7.219629" y="-0.0625" style="font-size: 10px; font-family: 'Times New Roman'"> </tspan>
       <tspan x="9.719629" y="-0.0625" style="font-size: 10px; font-family: 'Times New Roman'">/</tspan>
       <tspan x="12.497949" y="-0.0625" style="font-size: 10px; font-family: 'Times New Roman'"> </tspan>
       <tspan x="14.997949" y="-0.0625" style="font-size: 10px; font-family: 'Times New Roman'">k</tspan>
       <tspan x="19.997949" y="-0.0625" style="font-size: 10px; font-family: 'Times New Roman'">m</tspan>
      </text>
     </g>
    </g>
   </g>
   <g id="matplotlib.axis_2">
    <g id="ytick_1">
     <g id="line2d_19">
      <path d="M 72 256.32 
L 518.4 256.32 
" clip-path="url(#p0e50678aea)" style="fill: none; stroke: #b0b0b0; stroke-width: 0.8; stroke-linecap: square"/>
     </g>
     <g id="line2d_20">
      <defs>
       <path id="m5cd90dfb41" d="M 0 0 
L 3.5 0 
" style="stroke: #000000; stroke-width: 0.8"/>
      </defs>
      <g>
       <use xlink:href="#m5cd90dfb41" x="72" y="256.32" style="stroke: #000000; stroke-width: 0.8"/>
      </g>
     </g>
     <g id="text_11">
      <text style="font-size: 10px; font-family: 'Times New Roman', 'SimSun'; text-anchor: end" x="68.5" y="259.786797" transform="rotate(-0 68.5 259.786797)">−200</text>
     </g>
    </g>
    <g id="ytick_2">
     <g id="line2d_21">
      <path d="M 72 228.6 
L 518.4 228.6 
" clip-path="url(#p0e50678aea)" style="fill: none; stroke: #b0b0b0; stroke-width: 0.8; stroke-linecap: square"/>
     </g>
     <g id="line2d_22">
      <g>
       <use xlink:href="#m5cd90dfb41" x="72" y="228.6" style="stroke: #000000; stroke-width: 0.8"/>
      </g>
     </g>
     <g id="text_12">
      <text style="font-size: 10px; font-family: 'Times New Roman', 'SimSun'; text-anchor: end" x="68.5" y="232.066797" transform="rotate(-0 68.5 232.066797)">−150</text>
     </g>
    </g>
    <g id="ytick_3">
     <g id="line2d_23">
      <path d="M 72 200.88 
L 518.4 200.88 
" clip-path="url(#p0e50678aea)" style="fill: none; stroke: #b0b0b0; stroke-width: 0.8; stroke-linecap: square"/>
     </g>
     <g id="line2d_24">
      <g>
       <use xlink:href="#m5cd90dfb41" x="72" y="200.88" style="stroke: #000000; stroke-width: 0.8"/>
      </g>
     </g>
     <g id="text_13">
      <text style="font-size: 10px; font-family: 'Times New Roman', 'SimSun'; text-anchor: end" x="68.5" y="204.346797" transform="rotate(-0 68.5 204.346797)">−100</text>
     </g>
    </g>
    <g id="ytick_4">
     <g id="line2d_25">
      <path d="M 72 173.16 
L 518.4 173.16 
" clip-path="url(#p0e50678aea)" style="fill: none; stroke: #b0b0b0; stroke-width: 0.8; stroke-linecap: square"/>
     </g>
     <g id="line2d_26">
      <g>
       <use xlink:href="#m5cd90dfb41" x="72" y="173.16" style="stroke: #000000; stroke-width: 0.8"/>
      </g>
     </g>
     <g id="text_14">
      <text style="font-size: 10px; font-family: 'Times New Roman', 'SimSun'; text-anchor: end" x="68.5" y="176.626797" transform="rotate(-0 68.5 176.626797)">−50</text>
     </g>
    </g>
    <g id="ytick_5">
     <g id="line2d_27">
      <path d="M 72 145.44 
L 518.4 145.44 
" clip-path="url(#p0e50678aea)" style="fill: none; stroke: #b0b0b0; stroke-width: 0.8; stroke-linecap: square"/>
     </g>
     <g id="line2d_28">
      <g>
       <use xlink:href="#m5cd90dfb41" x="72" y="145.44" style="stroke: #000000; stroke-width: 0.8"/>
      </g>
     </g>
     <g id="text_15">
      <text style="font-size: 10px; font-family: 'Times New Roman', 'SimSun'; text-anchor: end" x="68.5" y="148.906797" transform="rotate(-0 68.5 148.906797)">0</text>
     </g>
    </g>
    <g id="ytick_6">
     <g id="line2d_29">
      <path d="M 72 117.72 
L 518.4 117.72 
" clip-path="url(#p0e50678aea)" style="fill: none; stroke: #b0b0b0; stroke-width: 0.8; stroke-linecap: square"/>
     </g>
     <g id="line2d_30">
      <g>
       <use xlink:href="#m5cd90dfb41" x="72" y="117.72" style="stroke: #000000; stroke-width: 0.8"/>
      </g>
     </g>
     <g id="text_16">
      <text style="font-size: 10px; font-family: 'Times New Roman', 'SimSun'; text-anchor: end" x="68.5" y="121.186797" transform="rotate(-0 68.5 121.186797)">50</text>
     </g>
    </g>
    <g id="ytick_7">
     <g id="line2d_31">
      <path d="M 72 90 
L 518.4 90 
" clip-path="url(#p0e50678aea)" style="fill: none; stroke: #b0b0b0; stroke-width: 0.8; stroke-linecap: square"/>
     </g>
     <g id="line2d_32">
      <g>
       <use xlink:href="#m5cd90dfb41" x="72" y="90" style="stroke: #000000; stroke-width: 0.8"/>
      </g>
     </g>
     <g id="text_17">
      <text style="font-size: 10px; font-family: 'Times New Roman', 'SimSun'; text-anchor: end" x="68.5" y="93.466797" transform="rotate(-0 68.5 93.466797)">100</text>
     </g>
    </g>
    <g id="ytick_8">
     <g id="line2d_33">
      <path d="M 72 62.28 
L 518.4 62.28 
" clip-path="url(#p0e50678aea)" style="fill: none; stroke: #b0b0b0; stroke-width: 0.8; stroke-linecap: square"/>
     </g>
     <g id="line2d_34">
      <g>
       <use xlink:href="#m5cd90dfb41" x="72" y="62.28" style="stroke: #000000; stroke-width: 0.8"/>
      </g>
     </g>
     <g id="text_18">
      <text style="font-size: 10px; font-family: 'Times New Roman', 'SimSun'; text-anchor: end" x="68.5" y="65.746797" transform="rotate(-0 68.5 65.746797)">150</text>
     </g>
    </g>
    <g id="ytick_9">
     <g id="line2d_35">
      <path d="M 72 34.56 
L 518.4 34.56 
" clip-path="url(#p0e50678aea)" style="fill: none; stroke: #b0b0b0; stroke-width: 0.8; stroke-linecap: square"/>
     </g>
     <g id="line2d_36">
      <g>
       <use xlink:href="#m5cd90dfb41" x="72" y="34.56" style="stroke: #000000; stroke-width: 0.8"/>
      </g>
     </g>
     <g id="text_19">
      <text style="font-size: 10px; font-family: 'Times New Roman', 'SimSun'; text-anchor: end" x="68.5" y="38.026797" transform="rotate(-0 68.5 38.026797)">200</text>
     </g>
    </g>
    <g id="text_20">
     <!-- $r_x$ / km -->
     <g transform="translate(41.702734 159.34) rotate(-90)">
      <text>
       <tspan x="0" y="-0.0625" style="font-style: italic; font-size: 10px; font-family: 'Times New Roman'">r</tspan>
       <tspan x="3.891602" y="1.264062" style="font-style: italic; font-size: 7px; font-family: 'Times New Roman'">x</tspan>
       <tspan x="7.219629" y="-0.0625" style="font-size: 10px; font-family: 'Times New Roman'"> </tspan>
       <tspan x="9.719629" y="-0.0625" style="font-size: 10px; font-family: 'Times New Roman'">/</tspan>
       <tspan x="12.497949" y="-0.0625" style="font-size: 10px; font-family: 'Times New Roman'"> </tspan>
       <tspan x="14.997949" y="-0.0625" style="font-size: 10px; font-family: 'Times New Roman'">k</tspan>
       <tspan x="19.997949" y="-0.0625" style="font-size: 10px; font-family: 'Times New Roman'">m</tspan>
      </text>
     </g>
    </g>
   </g>
   <g id="line2d_37">
    <path d="M -1 187.161126 
L 3.246641 185.016232 
L 8.69537 181.907221 
L 13.431189 178.798588 
L 17.452275 175.736335 
L 20.750755 172.766898 
L 23.344723 169.934277 
L 25.265294 167.280396 
L 26.555457 164.844423 
L 27.269246 162.66206 
L 27.470824 160.764886 
L 27.23357 159.179764 
L 26.641467 157.9282 
L 25.769524 157.027123 
L 24.714045 156.485814 
L 23.566634 156.308445 
L 22.42252 156.492574 
L 21.377144 157.029608 
L 20.524262 157.904963 
L 19.953695 159.098368 
L 19.796819 159.806876 
L 19.74265 160.584556 
L 19.800599 161.427692 
L 19.978579 162.332086 
L 20.285691 163.293185 
L 20.730088 164.306263 
L 21.319328 165.366385 
L 22.959143 167.607144 
L 25.251731 169.972752 
L 27.431465 171.813283 
L 30.952959 174.257912 
L 35.174195 176.700868 
L 40.111359 179.096511 
L 45.765083 181.400192 
L 52.109947 183.570267 
L 59.099836 185.567881 
L 66.690335 187.35633 
L 74.826992 188.902588 
L 83.445632 190.177835 
L 92.473329 191.157865 
L 101.829432 191.823435 
L 111.434755 192.160072 
L 121.196765 192.159611 
L 131.014887 191.819125 
L 140.796424 191.140849 
L 150.448841 190.13259 
L 159.881842 188.80759 
L 169.012278 187.184281 
L 177.756186 185.286592 
L 186.018885 183.142871 
L 193.736874 180.78494 
L 200.861622 178.248535 
L 207.343901 175.572927 
L 213.156623 172.799756 
L 218.26708 169.973324 
L 222.662009 167.138594 
L 226.334445 164.341168 
L 229.285341 161.626136 
L 231.543893 159.037213 
L 233.157411 156.61648 
L 234.174488 154.40367 
L 234.660549 152.474523 
L 234.851666 150.844026 
L 234.712744 149.676778 
L 234.507613 148.559563 
L 234.040129 147.668205 
L 233.02463 146.667955 
L 232.397535 146.374815 
L 231.723414 146.272008 
L 231.052482 146.360603 
L 230.615747 146.600519 
L 230.24386 147.193894 
L 230.126933 147.722354 
L 230.156999 148.345925 
L 230.375977 149.053373 
L 230.808122 149.832453 
L 231.468916 150.670273 
L 231.468916 150.670273 
" clip-path="url(#p0e50678aea)" style="fill: none; stroke: #008000; stroke-width: 1.5; stroke-linecap: square"/>
   </g>
   <g id="patch_5">
    <path d="M 72 256.32 
L 72 34.56 
" style="fill: none; stroke: #000000; stroke-width: 0.8; stroke-linejoin: miter; stroke-linecap: square"/>
   </g>
   <g id="patch_6">
    <path d="M 518.4 256.32 
L 518.4 34.56 
" style="fill: none; stroke: #000000; stroke-width: 0.8; stroke-linejoin: miter; stroke-linecap: square"/>
   </g>
   <g id="patch_7">
    <path d="M 72 256.32 
L 518.4 256.32 
" style="fill: none; stroke: #000000; stroke-width: 0.8; stroke-linejoin: miter; stroke-linecap: square"/>
   </g>
   <g id="patch_8">
    <path d="M 72 34.56 
L 518.4 34.56 
" style="fill: none; stroke: #000000; stroke-width: 0.8; stroke-linejoin: miter; stroke-linecap: square"/>
   </g>
   <g id="legend_1">
    <g id="patch_9">
     <path d="M 274.639062 251.32 
L 511.4 251.32 
Q 513.4 251.32 513.4 249.32 
L 513.4 222.003594 
Q 513.4 220.003594 511.4 220.003594 
L 274.639062 220.003594 
Q 272.639062 220.003594 272.639062 222.003594 
L 272.639062 249.32 
Q 272.639062 251.32 274.639062 251.32 
z
" style="fill: #ffffff; opacity: 0.8; stroke: #cccccc; stroke-linejoin: miter"/>
    </g>
    <g id="PathCollection_4">
     <g>
      <use xlink:href="#m9958591c0a" x="286.639062" y="228.378594" style="stroke: #000000"/>
     </g>
    </g>
    <g id="text_21">
     <text style="font-size: 10px; font-family: 'Times New Roman', 'SimSun'; text-anchor: start" x="304.639062" y="231.003594" transform="rotate(-0 304.639062 231.003594)">Target</text>
    </g>
    <g id="line2d_38">
     <path d="M 276.639062 241.661797 
L 286.639062 241.661797 
L 296.639062 241.661797 
" style="fill: none; stroke: #008000; stroke-width: 1.5; stroke-linecap: square"/>
    </g>
    <g id="text_22">
     <text style="font-size: 10px; font-family: 'Times New Roman', 'SimSun'; text-anchor: start" x="304.639062" y="245.161797" transform="rotate(-0 304.639062 245.161797)">Trajectory</text>
    </g>
    <g id="PathCollection_5">
     <g>
      <use xlink:href="#m5d8a36ba7c" x="375.928125" y="228.378594" style="fill: #0000ff; stroke: #0000ff"/>
     </g>
    </g>
    <g id="text_23">
     <text style="font-size: 10px; font-family: 'Times New Roman', 'SimSun'; text-anchor: start" x="393.928125" y="231.003594" transform="rotate(-0 393.928125 231.003594)">Maneuver</text>
    </g>
    <g id="PathCollection_6">
     <g>
      <use xlink:href="#m875ccf9743" x="375.928125" y="242.536797" style="fill: #ff0000; stroke: #ff0000"/>
     </g>
    </g>
    <g id="text_24">
     <text style="font-size: 10px; font-family: 'Times New Roman', 'SimSun'; text-anchor: start" x="393.928125" y="245.161797" transform="rotate(-0 393.928125 245.161797)">Spacecraft</text>
    </g>
    <g id="patch_10">
     <path d="M 456.121875 231.003594 
L 476.121875 231.003594 
L 476.121875 224.003594 
L 456.121875 224.003594 
L 456.121875 231.003594 
z
" style="fill: none; stroke-dasharray: 1.5,2.475; stroke-dashoffset: 0; stroke: #000000; stroke-width: 1.5; stroke-linejoin: miter"/>
    </g>
    <g id="text_25">
     <text style="font-size: 10px; font-family: 'Times New Roman', 'SimSun'; text-anchor: start" x="484.121875" y="231.003594" transform="rotate(-0 484.121875 231.003594)">2 km</text>
    </g>
    <g id="patch_11">
     <path d="M 456.121875 245.161797 
L 476.121875 245.161797 
L 476.121875 238.161797 
L 456.121875 238.161797 
L 456.121875 245.161797 
z
" style="fill: none; stroke-dasharray: 3.2,0.8,0.5,0.8; stroke-dashoffset: 0; stroke: #000000; stroke-width: 0.5; stroke-linejoin: miter"/>
    </g>
    <g id="text_26">
     <text style="font-size: 10px; font-family: 'Times New Roman', 'SimSun'; text-anchor: start" x="484.121875" y="245.161797" transform="rotate(-0 484.121875 245.161797)">20 km</text>
    </g>
   </g>
  </g>
 </g>
 <defs>
  <clipPath id="p0e50678aea">
   <rect x="72" y="34.56" width="446.4" height="221.76"/>
  </clipPath>
 </defs>
</svg>
